PathFileType	4	(X/Y/Z)	./resultDataOpenSim/trcMotMarkerGrf/sub10/qtm-12-04.trc
DataRate	CameraRate	NumFrames	NumMarkers	Units	OrigDataRate	OrigDataStartFrame	OrigNumFrames
250.000000	250.000000	5	24	m	250.000000	240	478
Frame#	Time	L.Toe.Tip			R.Toe.Tip			L.Ankle.Lat			R.Ankle.Lat			L.Ankle.Med			R.Ankle.Med			L.Heel			R.Heel			L.Knee.Lat			R.Knee.Lat			L.Knee.Med			R.Knee.Med			L.Thigh.Upper			R.Thigh.Upper			L.ASIS			R.ASIS			V.Sacral			L.Acromium			R.Acromium			C7			L.Elbow			R.Elbow			L.Wrist.Lat			R.Wrist.Lat
		X1	Y1	Z1	X2	Y2	Z2	X3	Y3	Z3	X4	Y4	Z4	X5	Y5	Z5	X6	Y6	Z6	X7	Y7	Z7	X8	Y8	Z8	X9	Y9	Z9	X10	Y10	Z10	X11	Y11	Z11	X12	Y12	Z12	X13	Y13	Z13	X14	Y14	Z14	X15	Y15	Z15	X16	Y16	Z16	X17	Y17	Z17	X18	Y18	Z18	X19	Y19	Z19	X20	Y20	Z20	X21	Y21	Z21	X22	Y22	Z22	X23	Y23	Z23	X24	Y24	Z24

240	0.956	-0.010381331	0.016495909	-0.14718981	0.44355172	0.092436619	0.070737213	-0.14208362	0.046863897	-0.1698559	0.29969383	0.096479632	0.063396658	-0.13041125	0.0680988	-0.083912234	0.34243125	0.12668607	-0.0093474063	-0.21097094	0.023384622	-0.12626316	0.27083488	0.064676472	0.0047527278	0.0038890907	0.40545222	-0.20138145	0.28646325	0.50235924	0.07919181	-0.00052089565	0.38711929	-0.082606147	0.32472769	0.51575016	-0.039558936	0.050555504	0.80175227	-0.27105069	0.041151013	0.81919949	0.1102738	0.10490802	0.90994745	-0.20370988	0.11063969	0.91582909	0.038554261	-0.09856856	0.92589042	-0.073999607	0.084545146	1.3803266	-0.228728	0.036497885	1.3730488	0.092259729	-0.021884851	1.4111356	-0.086049045	0.044047818	1.0420319	-0.337214	-0.095754213	1.055559	0.13343759	0.25426373	0.91853678	-0.38682071	-0.050713002	0.84347288	0.24182657
241	0.96	-0.010330216	0.016470908	-0.14722432	0.46306245	0.095514195	0.070364234	-0.14199475	0.047344485	-0.16951935	0.31893487	0.094117366	0.064392431	-0.13008464	0.068611643	-0.083768862	0.3600809	0.12580203	-0.0086828764	-0.21080374	0.0241167	-0.12582817	0.29065974	0.061468703	0.006157081	0.005142524	0.40570239	-0.2014126	0.29221305	0.50017338	0.079872091	0.00065985816	0.38724279	-0.082764428	0.32981198	0.51366324	-0.038917265	0.054354473	0.80159344	-0.27079672	0.048178062	0.81965243	0.1108272	0.10998174	0.90968538	-0.20374061	0.1176755	0.9160207	0.038820627	-0.092662231	0.92577639	-0.072502491	0.090007687	1.3804618	-0.22840141	0.042552587	1.3730205	0.092478552	-0.016125909	1.4110526	-0.085552523	0.051260535	1.0417205	-0.33700267	-0.092612092	1.0569581	0.13377567	0.26393495	0.92119872	-0.38613779	-0.050380245	0.84487279	0.24323672
242	0.964	-0.010290116	0.016463279	-0.14722823	0.48206491	0.098817317	0.069906105	-0.14188855	0.047859624	-0.1691763	0.33789457	0.092092628	0.065447839	-0.12967495	0.069144625	-0.083588504	0.37734515	0.12511992	-0.0080363773	-0.21062308	0.024911044	-0.12537914	0.31015843	0.058634696	0.0075430145	0.0063891422	0.40595233	-0.20144496	0.29776796	0.49763278	0.080493013	0.0019042069	0.38739448	-0.082883797	0.33485995	0.51125347	-0.038327199	0.058120065	0.80140619	-0.27051549	0.055107939	0.81996202	0.11125085	0.11505154	0.90939475	-0.20377991	0.12478149	0.91619563	0.03905939	-0.086814253	0.92562607	-0.070970455	0.095462149	1.3805496	-0.22806546	0.048589313	1.3729473	0.092700298	-0.010310077	1.4109178	-0.085193	0.058484455	1.0414139	-0.33679074	-0.089449749	1.0583115	0.13406019	0.27352999	0.9238447	-0.38541138	-0.049992915	0.84626542	0.24459376
243	0.968	-0.01025755	0.016464165	-0.14721932	0.50051644	0.10223017	0.069320017	-0.14169991	0.048396697	-0.16889203	0.35652173	0.090396935	0.066522858	-0.12918262	0.069688234	-0.083402943	0.39419376	0.12467324	-0.007375157	-0.21043949	0.025768743	-0.12494349	0.32928923	0.056171804	0.0089239932	0.0076342193	0.40620234	-0.20147769	0.30327303	0.49489376	0.081126504	0.0032312887	0.38757914	-0.082952556	0.33985785	0.50854514	-0.037785489	0.061902215	0.80120982	-0.27021297	0.061960939	0.82011932	0.11155187	0.12011967	0.90908487	-0.20382951	0.13195581	0.91635093	0.039259628	-0.081171663	0.92551482	-0.069337079	0.10091047	1.3805959	-0.22772223	0.054599584	1.3728258	0.092926521	-0.004421856	1.4107011	-0.08499817	0.065714536	1.0411092	-0.3365747	-0.086240694	1.059612	0.134348	0.28305969	0.92647292	-0.38463543	-0.049506043	0.84765027	0.24591545
244	0.972	-0.010230284	0.016468158	-0.14721368	0.51838902	0.10569816	0.068591018	-0.14132704	0.048920109	-0.1687464	0.37474237	0.089026109	0.067604559	-0.12863879	0.070245472	-0.083247674	0.41059546	0.12445973	-0.006688822	-0.21026068	0.026690558	-0.12454642	0.34799165	0.054073777	0.010321906	0.0088799443	0.40645248	-0.20151045	0.30885247	0.49207125	0.08182658	0.004644402	0.38780134	-0.082970412	0.34480285	0.50557222	-0.037285294	0.065736613	0.80105587	-0.2699116	0.06886001	0.82016104	0.11179326	0.12518578	0.90876746	-0.20388798	0.13919735	0.91649174	0.039412614	-0.075611963	0.92541497	-0.067587252	0.10634248	1.3806082	-0.22737498	0.060572313	1.3726604	0.093162807	0.0014620272	1.4103826	-0.084804337	0.0729479	1.0408044	-0.33635608	-0.08298121	1.0608592	0.13465426	0.2925264	0.92908585	-0.38381003	-0.048878473	0.84903909	0.24722667
